<svg width="135" height="23" viewBox="0 0 135 23" fill="none" xmlns="http://www.w3.org/2000/svg">
<path d="M6.82 22V18.7H5.32C4.33 18.7 3.94 18.22 3.94 17.29V0.64H0.0400001V17.53C0.0400001 19.75 1.39 22 4.6 22H6.82ZM22.4929 15.4V13.75C22.4929 9.31 20.0329 6.19 15.6829 6.19C11.6329 6.19 8.87289 9.07 8.87289 14.17C8.87289 20.5 12.4129 22.18 16.1029 22.18C18.9229 22.18 20.4529 21.34 22.0429 19.72L19.6729 17.41C18.6829 18.37 17.8429 18.88 16.1329 18.88C13.9129 18.88 12.7129 17.44 12.7129 15.4H22.4929ZM18.6529 12.73H12.7129C12.7429 12.04 12.8029 11.62 13.0729 11.05C13.4929 10.12 14.3629 9.43 15.6829 9.43C17.0029 9.43 17.8729 10.12 18.2929 11.05C18.5629 11.62 18.6229 12.04 18.6529 12.73ZM29.9884 22V6.82H26.0884V22H29.9884ZM30.0184 3.7V0.519999H26.0284V3.7H30.0184ZM46.1102 17.08C46.1102 14.41 44.5502 12.79 41.4602 12.49L39.0002 12.25C37.8302 12.13 37.3802 11.68 37.3802 10.9C37.3802 10.12 38.0402 9.4 39.6002 9.4C40.9802 9.4 42.3302 9.64 43.2302 10.45L45.6302 8.02C44.1302 6.64 42.1202 6.19 39.6602 6.19C36.4802 6.19 33.6302 7.9 33.6302 11.17C33.6302 14.05 35.3702 15.28 38.1302 15.55L40.6502 15.79C41.9102 15.91 42.3002 16.45 42.3002 17.23C42.3002 18.4 40.8902 18.85 39.5402 18.85C38.3402 18.85 36.6302 18.67 35.3702 17.38L32.8202 19.93C34.8302 21.91 37.0202 22.18 39.4802 22.18C43.1702 22.18 46.1102 20.53 46.1102 17.08ZM62.1895 22V6.37H58.2895V15.82C58.2895 17.95 56.9095 18.67 55.6795 18.67C54.4495 18.67 53.0995 17.95 53.0995 15.82V6.37H49.1995V16.36C49.1995 18.07 49.5295 19.54 50.7895 20.8C51.6595 21.67 52.9195 22.18 54.4795 22.18C55.9195 22.18 57.3595 21.64 58.3795 20.56V22H62.1895ZM78.0067 7.66C76.9267 6.58 75.8467 6.19 74.3167 6.19C72.6367 6.19 71.1367 6.97 70.3867 7.87V6.37H66.5767V22H70.4767V12.58C70.4767 10.6 71.7967 9.7 72.9967 9.7C73.9567 9.7 74.4667 10.03 75.0667 10.63L78.0067 7.66ZM92.1609 15.4V13.75C92.1609 9.31 89.7009 6.19 85.3509 6.19C81.3009 6.19 78.5409 9.07 78.5409 14.17C78.5409 20.5 82.0809 22.18 85.7709 22.18C88.5909 22.18 90.1209 21.34 91.7109 19.72L89.3409 17.41C88.3509 18.37 87.5109 18.88 85.8009 18.88C83.5809 18.88 82.3809 17.44 82.3809 15.4H92.1609ZM88.3209 12.73H82.3809C82.4109 12.04 82.4709 11.62 82.7409 11.05C83.1609 10.12 84.0309 9.43 85.3509 9.43C86.6709 9.43 87.5409 10.12 87.9609 11.05C88.2309 11.62 88.2909 12.04 88.3209 12.73ZM100.076 22V17.56H95.6064V22H100.076ZM116.881 14.17C116.881 11.35 116.521 9.61 115.111 8.11C114.121 7.06 112.561 6.19 110.251 6.19C107.941 6.19 106.411 7.09 105.421 8.11C104.011 9.61 103.651 11.35 103.651 14.17C103.651 16.99 104.011 18.76 105.421 20.26C106.411 21.28 107.941 22.18 110.251 22.18C112.561 22.18 114.121 21.28 115.111 20.26C116.551 18.79 116.881 16.99 116.881 14.17ZM112.981 14.17C112.981 15.79 112.891 17.2 112.081 17.98C111.631 18.43 111.031 18.67 110.251 18.67C109.501 18.67 108.901 18.43 108.451 17.98C107.641 17.2 107.551 15.79 107.551 14.17C107.551 12.58 107.641 11.17 108.451 10.39C108.901 9.94 109.501 9.7 110.251 9.7C111.031 9.7 111.631 9.94 112.081 10.39C112.891 11.17 112.981 12.58 112.981 14.17ZM134.82 22L128.82 12.67L134.4 6.37H129.69L124.5 12.76V0.64H120.6V22H124.5V17.35L126.15 15.49L129.99 22H134.82Z" fill="black"/>
</svg>
